<svg width="72" height="62" viewBox="0 0 72 62" fill="none" xmlns="http://www.w3.org/2000/svg">
<path d="M15.7699 54.7273V7.45454H18.7983V54.7273H15.7699ZM23.8026 23.0582C23.6548 21.5687 23.0208 20.4115 21.9006 19.5866C20.7803 18.7618 19.2599 18.3494 17.3395 18.3494C16.0346 18.3494 14.9328 18.5341 14.0341 18.9034C13.1354 19.2604 12.446 19.759 11.9659 20.3991C11.4981 21.0393 11.2642 21.7656 11.2642 22.5781C11.2396 23.2552 11.3812 23.8461 11.6889 24.3509C12.009 24.8556 12.446 25.2926 13 25.6619C13.554 26.0189 14.1941 26.3329 14.9205 26.6037C15.6468 26.8622 16.4223 27.0838 17.2472 27.2685L20.6449 28.081C22.2945 28.4503 23.8087 28.9427 25.1875 29.5582C26.5663 30.1738 27.7604 30.9309 28.7699 31.8295C29.7794 32.7282 30.5611 33.7869 31.1151 35.0057C31.6813 36.2244 31.9706 37.6217 31.983 39.1974C31.9706 41.5118 31.3797 43.5185 30.2102 45.2173C29.053 46.9039 27.3788 48.215 25.1875 49.1506C23.0085 50.0739 20.3802 50.5355 17.3026 50.5355C14.2495 50.5355 11.5904 50.0677 9.32528 49.1321C7.07244 48.1965 5.31203 46.8116 4.04403 44.9773C2.78835 43.1307 2.12973 40.8471 2.06818 38.1264H9.8054C9.89157 39.3944 10.2547 40.4531 10.8949 41.3026C11.5473 42.1397 12.4152 42.7737 13.4986 43.2045C14.5942 43.6231 15.8314 43.8324 17.2102 43.8324C18.5644 43.8324 19.7401 43.6354 20.7372 43.2415C21.7467 42.8475 22.5284 42.2997 23.0824 41.598C23.6364 40.8963 23.9134 40.09 23.9134 39.179C23.9134 38.3295 23.661 37.6155 23.1562 37.0369C22.6638 36.4583 21.9375 35.9659 20.9773 35.5597C20.0294 35.1534 18.866 34.7841 17.4872 34.4517L13.3693 33.4176C10.1809 32.642 7.66335 31.4295 5.81676 29.7798C3.97017 28.1302 3.05303 25.9081 3.06534 23.1136C3.05303 20.8239 3.66241 18.8234 4.89347 17.1122C6.13684 15.401 7.84186 14.0653 10.0085 13.1051C12.1752 12.1449 14.6373 11.6648 17.3949 11.6648C20.2017 11.6648 22.6515 12.1449 24.7443 13.1051C26.8494 14.0653 28.4867 15.401 29.6562 17.1122C30.8258 18.8234 31.429 20.8054 31.4659 23.0582H23.8026Z" fill="#151A8A"/>
<path d="M34.9402 46.171C34.3834 46.17 33.8876 46.0725 33.4526 45.8785C33.0177 45.6807 32.674 45.3903 32.4215 45.0073C32.1729 44.6205 32.0495 44.1392 32.0515 43.5634C32.0532 43.0786 32.1436 42.6716 32.3228 42.3423C32.5019 42.0131 32.7453 41.7484 33.0528 41.5482C33.3603 41.348 33.7093 41.1971 34.0998 41.0956C34.4941 40.994 34.9072 40.9228 35.3392 40.8819C35.847 40.8298 36.2562 40.7813 36.567 40.7364C36.8778 40.6877 37.1034 40.6162 37.2439 40.5217C37.3843 40.4273 37.4549 40.2873 37.4555 40.1017L37.4557 40.0676C37.4569 39.7077 37.3442 39.4291 37.1176 39.2317C36.8948 39.0344 36.577 38.9353 36.1641 38.9346C35.7285 38.9338 35.3816 39.0297 35.1233 39.2224C34.8651 39.4114 34.6938 39.6497 34.6095 39.9374L32.3715 39.7515C32.487 39.2214 32.712 38.7635 33.0467 38.3777C33.3814 37.9882 33.8123 37.6897 34.3396 37.4824C34.8706 37.2712 35.4846 37.1663 36.1816 37.1675C36.6664 37.1684 37.1302 37.2261 37.573 37.3405C38.0196 37.455 38.4148 37.6318 38.7587 37.8711C39.1064 38.1104 39.3799 38.4177 39.5794 38.793C39.7789 39.1646 39.8777 39.6099 39.8759 40.1288L39.8556 46.0151L37.5601 46.011L37.5643 44.8007L37.4961 44.8006C37.355 45.0731 37.1667 45.3133 36.9311 45.5212C36.6956 45.7253 36.4128 45.8858 36.0829 46.0026C35.7529 46.1156 35.3721 46.1718 34.9402 46.171ZM35.6392 44.5018C35.9953 44.5024 36.3099 44.4329 36.5831 44.2933C36.8563 44.1498 37.071 43.957 37.2271 43.7149C37.3833 43.4728 37.4619 43.1983 37.4629 42.8915L37.4661 41.9653C37.3902 42.0144 37.2859 42.0597 37.1532 42.1011C37.0243 42.1388 36.8783 42.1745 36.7153 42.2083C36.5523 42.2383 36.3893 42.2664 36.2264 42.2926C36.0634 42.3151 35.9156 42.3356 35.783 42.3543C35.4987 42.3955 35.2504 42.4613 35.038 42.5518C34.8255 42.6423 34.6603 42.7652 34.5424 42.9202C34.4244 43.0715 34.3651 43.2608 34.3643 43.4881C34.3631 43.8176 34.4816 44.0698 34.7196 44.2444C34.9615 44.4153 35.268 44.5011 35.6392 44.5018ZM41.7789 46.0186L41.8191 34.3823L44.2395 34.3867L44.2244 38.7617L44.2983 38.7619C44.4051 38.5272 44.5594 38.2888 44.761 38.0468C44.9664 37.801 45.2322 37.5969 45.5585 37.4346C45.8887 37.2685 46.298 37.186 46.7867 37.1868C47.423 37.188 48.0096 37.3557 48.5463 37.69C49.083 38.0206 49.5112 38.5195 49.8309 39.1867C50.1506 39.8502 50.3087 40.6819 50.3053 41.6819C50.3019 42.6554 50.1419 43.477 49.8251 44.1469C49.5122 44.813 49.0863 45.3179 48.5472 45.6616C48.0119 46.0016 47.4128 46.1709 46.75 46.1697C46.2803 46.1689 45.8809 46.0905 45.5519 45.9346C45.2267 45.7787 44.9603 45.5831 44.7528 45.3479C44.5453 45.1089 44.387 44.8681 44.278 44.6255L44.1701 44.6253L44.1652 46.023L41.7789 46.0186ZM44.1633 41.6593C44.1615 42.1783 44.2319 42.6311 44.3745 43.0177C44.5171 43.4043 44.7244 43.7058 44.9964 43.9222C45.2683 44.1348 45.5994 44.2415 45.9896 44.2422C46.3835 44.2429 46.7172 44.1356 46.9907 43.9202C47.2642 43.701 47.4717 43.3983 47.6131 43.0122C47.7584 42.6223 47.832 42.1736 47.8337 41.666C47.8354 41.1622 47.7669 40.7189 47.6281 40.3361C47.4892 39.9533 47.2838 39.6537 47.0119 39.4373C46.7399 39.2208 46.405 39.1123 46.0073 39.1116C45.6134 39.1108 45.2797 39.2144 45.0062 39.4222C44.7366 39.6301 44.5291 39.9252 44.3838 40.3075C44.2386 40.6898 44.1651 41.1404 44.1633 41.6593ZM55.882 46.2148C54.9842 46.2131 54.2121 46.0299 53.5657 45.6651C52.923 45.2965 52.4286 44.7767 52.0824 44.1056C51.7362 43.4307 51.5648 42.633 51.5679 41.7126C51.571 40.8149 51.748 40.0273 52.0988 39.3499C52.4497 38.6725 52.942 38.145 53.5759 37.7674C54.2136 37.3897 54.9604 37.2017 55.8165 37.2033C56.3922 37.2043 56.9279 37.2981 57.4235 37.4846C57.9228 37.6673 58.3575 37.9427 58.7274 38.3108C59.1012 38.6789 59.3912 39.1416 59.5977 39.6988C59.8041 40.2522 59.906 40.9001 59.9034 41.6425L59.9011 42.3073L52.5318 42.2939L52.537 40.7939L57.6279 40.8032C57.6291 40.4547 57.5544 40.1458 57.4039 39.8766C57.2533 39.6074 57.0438 39.3968 56.7753 39.2448C56.5107 39.089 56.2023 39.0108 55.85 39.0102C55.4826 39.0095 55.1565 39.0941 54.8719 39.2641C54.591 39.4302 54.3705 39.6552 54.2104 39.939C54.0504 40.219 53.9679 40.5313 53.9629 40.876L53.958 42.3022C53.9565 42.734 54.0347 43.1072 54.1927 43.4219C54.3545 43.7366 54.5828 43.9794 54.8777 44.1504C55.1726 44.3214 55.5227 44.4073 55.928 44.408C56.1969 44.4085 56.4432 44.3711 56.667 44.2957C56.8907 44.2204 57.0824 44.1071 57.242 43.9559C57.4016 43.8046 57.5235 43.6193 57.6076 43.3997L59.8457 43.5515C59.7302 44.0892 59.4956 44.5585 59.142 44.9593C58.7921 45.3564 58.3403 45.6662 57.7865 45.8887C57.2365 46.1074 56.6016 46.2161 55.882 46.2148ZM61.4678 46.0545L61.4979 37.3272L63.8445 37.3315L63.8392 38.8542L63.9301 38.8544C64.0911 38.313 64.3596 37.9044 64.7355 37.6286C65.1115 37.349 65.5438 37.2096 66.0324 37.2105C66.1536 37.2107 66.2843 37.2185 66.4244 37.2339C66.5645 37.2493 66.6875 37.2704 66.7935 37.2971L66.7861 39.4448C66.6726 39.4105 66.5155 39.3799 66.3148 39.3531C66.1141 39.3262 65.9305 39.3126 65.7638 39.3123C65.4077 39.3116 65.0893 39.3887 64.8084 39.5435C64.5314 39.6945 64.311 39.9062 64.1472 40.1787C63.9871 40.4511 63.9065 40.7653 63.9053 41.1214L63.8882 46.0589L61.4678 46.0545Z" fill="#151A8A"/>
<path d="M25.7382 61.5V49.8636H33.4427V51.892H28.1984V54.6648H32.9314V56.6932H28.1984V61.5H25.7382ZM35.0521 61.5V52.7727H37.4726V61.5H35.0521ZM36.268 51.6477C35.9082 51.6477 35.5995 51.5284 35.3419 51.2898C35.0881 51.0473 34.9612 50.7576 34.9612 50.4205C34.9612 50.0871 35.0881 49.8011 35.3419 49.5625C35.5995 49.3201 35.9082 49.1989 36.268 49.1989C36.6279 49.1989 36.9347 49.3201 37.1885 49.5625C37.4461 49.8011 37.5748 50.0871 37.5748 50.4205C37.5748 50.7576 37.4461 51.0473 37.1885 51.2898C36.9347 51.5284 36.6279 51.6477 36.268 51.6477ZM41.832 56.4545V61.5H39.4115V52.7727H41.7183V54.3125H41.8206C42.0138 53.8049 42.3376 53.4034 42.7922 53.108C43.2467 52.8087 43.7979 52.6591 44.4456 52.6591C45.0516 52.6591 45.5801 52.7917 46.0308 53.0568C46.4816 53.322 46.832 53.7008 47.082 54.1932C47.332 54.6818 47.457 55.2652 47.457 55.9432V61.5H45.0365V56.375C45.0403 55.8409 44.9039 55.4242 44.6274 55.125C44.3509 54.822 43.9702 54.6705 43.4854 54.6705C43.1596 54.6705 42.8717 54.7405 42.6217 54.8807C42.3755 55.0208 42.1823 55.2254 42.0422 55.4943C41.9058 55.7595 41.8357 56.0795 41.832 56.4545Z" fill="#151A8A"/>
</svg>
